<?xml version="1.0" encoding="UTF-8" standalone="no"?>
<!DOCTYPE svg PUBLIC "-//W3C//DTD SVG 1.1//EN"
 "http://www.w3.org/Graphics/SVG/1.1/DTD/svg11.dtd">
<!-- Generated by graphviz version 2.47.0 (20210316.0004)
 -->
<!-- Title: dependencies Pages: 1 -->
<svg width="1511pt" height="284pt"
 viewBox="0.00 0.00 1511.00 284.00" xmlns="http://www.w3.org/2000/svg" xmlns:xlink="http://www.w3.org/1999/xlink">
<g id="graph0" class="graph" transform="scale(1 1) rotate(0) translate(4 280)">
<title>dependencies</title>
<polygon fill="white" stroke="transparent" points="-4,4 -4,-280 1507,-280 1507,4 -4,4"/>
<text text-anchor="start" x="730.51" y="-42.4" font-family="Times-12" font-weight="bold" font-size="14.00">Legend</text>
<polygon fill="#ffffb3" stroke="transparent" points="517.5,-10 517.5,-30 537.5,-30 537.5,-10 517.5,-10"/>
<text text-anchor="start" x="541.13" y="-15.4" font-family="Times-12" font-size="14.00"> &#160;Declarations</text>
<polygon fill="#8dd3c7" stroke="transparent" points="630.5,-10 630.5,-30 650.5,-30 650.5,-10 630.5,-10"/>
<text text-anchor="start" x="654.23" y="-15.4" font-family="Times-12" font-size="14.00"> &#160;Module</text>
<polygon fill="#80b1d3" stroke="transparent" points="716.5,-10 716.5,-30 736.5,-30 736.5,-10 716.5,-10"/>
<text text-anchor="start" x="740.28" y="-15.4" font-family="Times-12" font-size="14.00"> &#160;Bootstrap</text>
<polygon fill="#fdb462" stroke="transparent" points="813.5,-10 813.5,-30 833.5,-30 833.5,-10 813.5,-10"/>
<text text-anchor="start" x="837.17" y="-15.4" font-family="Times-12" font-size="14.00"> &#160;Providers</text>
<polygon fill="#fb8072" stroke="transparent" points="909.5,-10 909.5,-30 929.5,-30 929.5,-10 909.5,-10"/>
<text text-anchor="start" x="933.23" y="-15.4" font-family="Times-12" font-size="14.00"> &#160;Exports</text>
<g id="clust1" class="cluster">
<title>cluster_AppModule</title>
<polygon fill="none" stroke="black" stroke-dasharray="1,5" points="8,-70 8,-268 1495,-268 1495,-70 8,-70"/>
</g>
<g id="clust13" class="cluster">
<title>cluster_AppModule_bootstrap</title>
<polygon fill="none" stroke="black" points="742,-208 742,-260 866,-260 866,-208 742,-208"/>
</g>
<g id="clust14" class="cluster">
<title>cluster_AppModule_providers</title>
<polygon fill="none" stroke="black" points="1331,-78 1331,-130 1487,-130 1487,-78 1331,-78"/>
</g>
<g id="clust2" class="cluster">
<title>cluster_AppModule_declarations</title>
<polygon fill="none" stroke="black" points="16,-78 16,-130 1323,-130 1323,-78 16,-78"/>
</g>
<!-- AppComponent -->
<g id="node1" class="node">
<title>AppComponent</title>
<polygon fill="#ffffb3" stroke="black" points="1314.94,-122 1209.06,-122 1209.06,-86 1314.94,-86 1314.94,-122"/>
<text text-anchor="middle" x="1262" y="-99.8" font-family="Times,serif" font-size="14.00">AppComponent</text>
</g>
<!-- AppModule -->
<g id="node9" class="node">
<title>AppModule</title>
<polygon fill="#8dd3c7" stroke="black" points="845.66,-187 842.66,-191 821.66,-191 818.66,-187 762.34,-187 762.34,-151 845.66,-151 845.66,-187"/>
<text text-anchor="middle" x="804" y="-164.8" font-family="Times,serif" font-size="14.00">AppModule</text>
</g>
<!-- AppComponent&#45;&gt;AppModule -->
<g id="edge1" class="edge">
<title>AppComponent&#45;&gt;AppModule</title>
<path fill="none" stroke="black" d="M1262,-122.13C1262,-142.57 1262,-173 1262,-173 1262,-173 855.86,-173 855.86,-173"/>
<polygon fill="black" stroke="black" points="855.86,-169.5 845.86,-173 855.86,-176.5 855.86,-169.5"/>
</g>
<!-- CartDetailsComponent -->
<g id="node2" class="node">
<title>CartDetailsComponent</title>
<polygon fill="#ffffb3" stroke="black" points="1191.59,-122 1046.41,-122 1046.41,-86 1191.59,-86 1191.59,-122"/>
<text text-anchor="middle" x="1119" y="-99.8" font-family="Times,serif" font-size="14.00">CartDetailsComponent</text>
</g>
<!-- CartDetailsComponent&#45;&gt;AppModule -->
<g id="edge2" class="edge">
<title>CartDetailsComponent&#45;&gt;AppModule</title>
<path fill="none" stroke="black" d="M1119,-122.27C1119,-140.56 1119,-166 1119,-166 1119,-166 855.83,-166 855.83,-166"/>
<polygon fill="black" stroke="black" points="855.83,-162.5 845.83,-166 855.83,-169.5 855.83,-162.5"/>
</g>
<!-- CartStatusComponent -->
<g id="node3" class="node">
<title>CartStatusComponent</title>
<polygon fill="#ffffb3" stroke="black" points="1028.66,-122 889.34,-122 889.34,-86 1028.66,-86 1028.66,-122"/>
<text text-anchor="middle" x="959" y="-99.8" font-family="Times,serif" font-size="14.00">CartStatusComponent</text>
</g>
<!-- CartStatusComponent&#45;&gt;AppModule -->
<g id="edge3" class="edge">
<title>CartStatusComponent&#45;&gt;AppModule</title>
<path fill="none" stroke="black" d="M959,-122.01C959,-138.05 959,-159 959,-159 959,-159 855.95,-159 855.95,-159"/>
<polygon fill="black" stroke="black" points="855.95,-155.5 845.95,-159 855.95,-162.5 855.95,-155.5"/>
</g>
<!-- CheckoutComponent -->
<g id="node4" class="node">
<title>CheckoutComponent</title>
<polygon fill="#ffffb3" stroke="black" points="871.49,-122 736.51,-122 736.51,-86 871.49,-86 871.49,-122"/>
<text text-anchor="middle" x="804" y="-99.8" font-family="Times,serif" font-size="14.00">CheckoutComponent</text>
</g>
<!-- CheckoutComponent&#45;&gt;AppModule -->
<g id="edge4" class="edge">
<title>CheckoutComponent&#45;&gt;AppModule</title>
<path fill="none" stroke="black" d="M804,-122.11C804,-122.11 804,-140.99 804,-140.99"/>
<polygon fill="black" stroke="black" points="800.5,-140.99 804,-150.99 807.5,-140.99 800.5,-140.99"/>
</g>
<!-- ProductCategoryMenuComponent -->
<g id="node5" class="node">
<title>ProductCategoryMenuComponent</title>
<polygon fill="#ffffb3" stroke="black" points="718.36,-122 509.64,-122 509.64,-86 718.36,-86 718.36,-122"/>
<text text-anchor="middle" x="614" y="-99.8" font-family="Times,serif" font-size="14.00">ProductCategoryMenuComponent</text>
</g>
<!-- ProductCategoryMenuComponent&#45;&gt;AppModule -->
<g id="edge5" class="edge">
<title>ProductCategoryMenuComponent&#45;&gt;AppModule</title>
<path fill="none" stroke="black" d="M614,-122.01C614,-138.05 614,-159 614,-159 614,-159 752.3,-159 752.3,-159"/>
<polygon fill="black" stroke="black" points="752.3,-162.5 762.3,-159 752.3,-155.5 752.3,-162.5"/>
</g>
<!-- ProductDetailsComponent -->
<g id="node6" class="node">
<title>ProductDetailsComponent</title>
<polygon fill="#ffffb3" stroke="black" points="491.03,-122 326.97,-122 326.97,-86 491.03,-86 491.03,-122"/>
<text text-anchor="middle" x="409" y="-99.8" font-family="Times,serif" font-size="14.00">ProductDetailsComponent</text>
</g>
<!-- ProductDetailsComponent&#45;&gt;AppModule -->
<g id="edge6" class="edge">
<title>ProductDetailsComponent&#45;&gt;AppModule</title>
<path fill="none" stroke="black" d="M409,-122.27C409,-140.56 409,-166 409,-166 409,-166 752.1,-166 752.1,-166"/>
<polygon fill="black" stroke="black" points="752.1,-169.5 762.1,-166 752.1,-162.5 752.1,-169.5"/>
</g>
<!-- ProductListComponent -->
<g id="node7" class="node">
<title>ProductListComponent</title>
<polygon fill="#ffffb3" stroke="black" points="308.16,-122 161.84,-122 161.84,-86 308.16,-86 308.16,-122"/>
<text text-anchor="middle" x="235" y="-99.8" font-family="Times,serif" font-size="14.00">ProductListComponent</text>
</g>
<!-- ProductListComponent&#45;&gt;AppModule -->
<g id="edge7" class="edge">
<title>ProductListComponent&#45;&gt;AppModule</title>
<path fill="none" stroke="black" d="M235,-122.13C235,-142.57 235,-173 235,-173 235,-173 752.16,-173 752.16,-173"/>
<polygon fill="black" stroke="black" points="752.16,-176.5 762.16,-173 752.16,-169.5 752.16,-176.5"/>
</g>
<!-- SearchComponent -->
<g id="node8" class="node">
<title>SearchComponent</title>
<polygon fill="#ffffb3" stroke="black" points="143.92,-122 24.08,-122 24.08,-86 143.92,-86 143.92,-122"/>
<text text-anchor="middle" x="84" y="-99.8" font-family="Times,serif" font-size="14.00">SearchComponent</text>
</g>
<!-- SearchComponent&#45;&gt;AppModule -->
<g id="edge8" class="edge">
<title>SearchComponent&#45;&gt;AppModule</title>
<path fill="none" stroke="black" d="M84,-122.01C84,-144.49 84,-180 84,-180 84,-180 752.18,-180 752.18,-180"/>
<polygon fill="black" stroke="black" points="752.18,-183.5 762.18,-180 752.18,-176.5 752.18,-183.5"/>
</g>
<!-- AppComponent  -->
<g id="node10" class="node">
<title>AppComponent </title>
<polygon fill="#80b1d3" stroke="black" points="858.44,-252 749.56,-252 749.56,-216 858.44,-216 858.44,-252"/>
<text text-anchor="middle" x="804" y="-229.8" font-family="Times,serif" font-size="14.00">AppComponent </text>
</g>
<!-- AppModule&#45;&gt;AppComponent  -->
<g id="edge9" class="edge">
<title>AppModule&#45;&gt;AppComponent </title>
<path fill="none" stroke="black" stroke-dasharray="1,5" d="M804,-187.11C804,-187.11 804,-205.99 804,-205.99"/>
<polygon fill="black" stroke="black" points="800.5,-205.99 804,-215.99 807.5,-205.99 800.5,-205.99"/>
</g>
<!-- ProductService -->
<g id="node11" class="node">
<title>ProductService</title>
<ellipse fill="#fdb462" stroke="black" cx="1409" cy="-104" rx="70.06" ry="18"/>
<text text-anchor="middle" x="1409" y="-99.8" font-family="Times,serif" font-size="14.00">ProductService</text>
</g>
<!-- ProductService&#45;&gt;AppModule -->
<g id="edge10" class="edge">
<title>ProductService&#45;&gt;AppModule</title>
<path fill="none" stroke="black" d="M1409,-122.01C1409,-144.49 1409,-180 1409,-180 1409,-180 856.06,-180 856.06,-180"/>
<polygon fill="black" stroke="black" points="856.06,-176.5 846.06,-180 856.06,-183.5 856.06,-176.5"/>
</g>
</g>
</svg>
