<?xml version="1.0" encoding="UTF-8" standalone="no"?>
<!DOCTYPE svg PUBLIC "-//W3C//DTD SVG 1.1//EN"
 "http://www.w3.org/Graphics/SVG/1.1/DTD/svg11.dtd">
<!-- Generated by graphviz version 2.47.0 (20210316.0004)
 -->
<!-- Title: dependencies Pages: 1 -->
<svg width="1511pt" height="284pt"
 viewBox="0.00 0.00 1511.00 284.00" xmlns="http://www.w3.org/2000/svg" xmlns:xlink="http://www.w3.org/1999/xlink">
<g id="graph0" class="graph" transform="scale(1 1) rotate(0) translate(4 280)">
<title>dependencies</title>
<polygon fill="white" stroke="transparent" points="-4,4 -4,-280 1507,-280 1507,4 -4,4"/>
<text text-anchor="start" x="730.51" y="-42.4" font-family="Times-12" font-weight="bold" font-size="14.00">Legend</text>
<polygon fill="#ffffb3" stroke="transparent" points="517.5,-10 517.5,-30 537.5,-30 537.5,-10 517.5,-10"/>
<text text-anchor="start" x="541.13" y="-15.4" font-family="Times-12" font-size="14.00"> &#160;Declarations</text>
<polygon fill="#8dd3c7" stroke="transparent" points="630.5,-10 630.5,-30 650.5,-30 650.5,-10 630.5,-10"/>
<text text-anchor="start" x="654.23" y="-15.4" font-family="Times-12" font-size="14.00"> &#160;Module</text>
<polygon fill="#80b1d3" stroke="transparent" points="716.5,-10 716.5,-30 736.5,-30 736.5,-10 716.5,-10"/>
<text text-anchor="start" x="740.28" y="-15.4" font-family="Times-12" font-size="14.00"> &#160;Bootstrap</text>
<polygon fill="#fdb462" stroke="transparent" points="813.5,-10 813.5,-30 833.5,-30 833.5,-10 813.5,-10"/>
<text text-anchor="start" x="837.17" y="-15.4" font-family="Times-12" font-size="14.00"> &#160;Providers</text>
<polygon fill="#fb8072" stroke="transparent" points="909.5,-10 909.5,-30 929.5,-30 929.5,-10 909.5,-10"/>
<text text-anchor="start" x="933.23" y="-15.4" font-family="Times-12" font-size="14.00"> &#160;Exports</text>
<g id="clust1" class="cluster">
<title>cluster_AppModule</title>
<polygon fill="none" stroke="black" stroke-dasharray="1,5" points="8,-70 8,-268 1495,-268 1495,-70 8,-70"/>
</g>
<g id="clust2" class="cluster">
<title>cluster_AppModule_declarations</title>
<polygon fill="none" stroke="black" points="180,-78 180,-130 1487,-130 1487,-78 180,-78"/>
</g>
<g id="clust13" class="cluster">
<title>cluster_AppModule_bootstrap</title>
<polygon fill="none" stroke="black" points="716,-208 716,-260 840,-260 840,-208 716,-208"/>
</g>
<g id="clust14" class="cluster">
<title>cluster_AppModule_providers</title>
<polygon fill="none" stroke="black" points="16,-78 16,-130 172,-130 172,-78 16,-78"/>
</g>
<!-- AppComponent -->
<g id="node1" class="node">
<title>AppComponent</title>
<polygon fill="#ffffb3" stroke="black" points="1478.94,-122 1373.06,-122 1373.06,-86 1478.94,-86 1478.94,-122"/>
<text text-anchor="middle" x="1426" y="-99.8" font-family="Times,serif" font-size="14.00">AppComponent</text>
</g>
<!-- AppModule -->
<g id="node9" class="node">
<title>AppModule</title>
<polygon fill="#8dd3c7" stroke="black" points="819.66,-187 816.66,-191 795.66,-191 792.66,-187 736.34,-187 736.34,-151 819.66,-151 819.66,-187"/>
<text text-anchor="middle" x="778" y="-164.8" font-family="Times,serif" font-size="14.00">AppModule</text>
</g>
<!-- AppComponent&#45;&gt;AppModule -->
<g id="edge1" class="edge">
<title>AppComponent&#45;&gt;AppModule</title>
<path fill="none" stroke="black" d="M1426,-122.01C1426,-144.49 1426,-180 1426,-180 1426,-180 830.02,-180 830.02,-180"/>
<polygon fill="black" stroke="black" points="830.02,-176.5 820.02,-180 830.02,-183.5 830.02,-176.5"/>
</g>
<!-- CartDetailsComponent -->
<g id="node2" class="node">
<title>CartDetailsComponent</title>
<polygon fill="#ffffb3" stroke="black" points="1355.59,-122 1210.41,-122 1210.41,-86 1355.59,-86 1355.59,-122"/>
<text text-anchor="middle" x="1283" y="-99.8" font-family="Times,serif" font-size="14.00">CartDetailsComponent</text>
</g>
<!-- CartDetailsComponent&#45;&gt;AppModule -->
<g id="edge2" class="edge">
<title>CartDetailsComponent&#45;&gt;AppModule</title>
<path fill="none" stroke="black" d="M1283,-122.13C1283,-142.57 1283,-173 1283,-173 1283,-173 829.76,-173 829.76,-173"/>
<polygon fill="black" stroke="black" points="829.76,-169.5 819.76,-173 829.76,-176.5 829.76,-169.5"/>
</g>
<!-- CartStatusComponent -->
<g id="node3" class="node">
<title>CartStatusComponent</title>
<polygon fill="#ffffb3" stroke="black" points="1192.66,-122 1053.34,-122 1053.34,-86 1192.66,-86 1192.66,-122"/>
<text text-anchor="middle" x="1123" y="-99.8" font-family="Times,serif" font-size="14.00">CartStatusComponent</text>
</g>
<!-- CartStatusComponent&#45;&gt;AppModule -->
<g id="edge3" class="edge">
<title>CartStatusComponent&#45;&gt;AppModule</title>
<path fill="none" stroke="black" d="M1123,-122.27C1123,-140.56 1123,-166 1123,-166 1123,-166 829.96,-166 829.96,-166"/>
<polygon fill="black" stroke="black" points="829.96,-162.5 819.96,-166 829.96,-169.5 829.96,-162.5"/>
</g>
<!-- CheckoutComponent -->
<g id="node4" class="node">
<title>CheckoutComponent</title>
<polygon fill="#ffffb3" stroke="black" points="1035.49,-122 900.51,-122 900.51,-86 1035.49,-86 1035.49,-122"/>
<text text-anchor="middle" x="968" y="-99.8" font-family="Times,serif" font-size="14.00">CheckoutComponent</text>
</g>
<!-- CheckoutComponent&#45;&gt;AppModule -->
<g id="edge4" class="edge">
<title>CheckoutComponent&#45;&gt;AppModule</title>
<path fill="none" stroke="black" d="M968,-122.01C968,-138.05 968,-159 968,-159 968,-159 829.7,-159 829.7,-159"/>
<polygon fill="black" stroke="black" points="829.7,-155.5 819.7,-159 829.7,-162.5 829.7,-155.5"/>
</g>
<!-- ProductCategoryMenuComponent -->
<g id="node5" class="node">
<title>ProductCategoryMenuComponent</title>
<polygon fill="#ffffb3" stroke="black" points="882.36,-122 673.64,-122 673.64,-86 882.36,-86 882.36,-122"/>
<text text-anchor="middle" x="778" y="-99.8" font-family="Times,serif" font-size="14.00">ProductCategoryMenuComponent</text>
</g>
<!-- ProductCategoryMenuComponent&#45;&gt;AppModule -->
<g id="edge5" class="edge">
<title>ProductCategoryMenuComponent&#45;&gt;AppModule</title>
<path fill="none" stroke="black" d="M778,-122.11C778,-122.11 778,-140.99 778,-140.99"/>
<polygon fill="black" stroke="black" points="774.5,-140.99 778,-150.99 781.5,-140.99 774.5,-140.99"/>
</g>
<!-- ProductDetailsComponent -->
<g id="node6" class="node">
<title>ProductDetailsComponent</title>
<polygon fill="#ffffb3" stroke="black" points="655.03,-122 490.97,-122 490.97,-86 655.03,-86 655.03,-122"/>
<text text-anchor="middle" x="573" y="-99.8" font-family="Times,serif" font-size="14.00">ProductDetailsComponent</text>
</g>
<!-- ProductDetailsComponent&#45;&gt;AppModule -->
<g id="edge6" class="edge">
<title>ProductDetailsComponent&#45;&gt;AppModule</title>
<path fill="none" stroke="black" d="M573,-122.01C573,-138.05 573,-159 573,-159 573,-159 726.02,-159 726.02,-159"/>
<polygon fill="black" stroke="black" points="726.02,-162.5 736.02,-159 726.02,-155.5 726.02,-162.5"/>
</g>
<!-- ProductListComponent -->
<g id="node7" class="node">
<title>ProductListComponent</title>
<polygon fill="#ffffb3" stroke="black" points="472.16,-122 325.84,-122 325.84,-86 472.16,-86 472.16,-122"/>
<text text-anchor="middle" x="399" y="-99.8" font-family="Times,serif" font-size="14.00">ProductListComponent</text>
</g>
<!-- ProductListComponent&#45;&gt;AppModule -->
<g id="edge7" class="edge">
<title>ProductListComponent&#45;&gt;AppModule</title>
<path fill="none" stroke="black" d="M399,-122.27C399,-140.56 399,-166 399,-166 399,-166 725.99,-166 725.99,-166"/>
<polygon fill="black" stroke="black" points="725.99,-169.5 735.99,-166 725.99,-162.5 725.99,-169.5"/>
</g>
<!-- SearchComponent -->
<g id="node8" class="node">
<title>SearchComponent</title>
<polygon fill="#ffffb3" stroke="black" points="307.92,-122 188.08,-122 188.08,-86 307.92,-86 307.92,-122"/>
<text text-anchor="middle" x="248" y="-99.8" font-family="Times,serif" font-size="14.00">SearchComponent</text>
</g>
<!-- SearchComponent&#45;&gt;AppModule -->
<g id="edge8" class="edge">
<title>SearchComponent&#45;&gt;AppModule</title>
<path fill="none" stroke="black" d="M248,-122.13C248,-142.57 248,-173 248,-173 248,-173 725.97,-173 725.97,-173"/>
<polygon fill="black" stroke="black" points="725.97,-176.5 735.97,-173 725.97,-169.5 725.97,-176.5"/>
</g>
<!-- AppComponent  -->
<g id="node10" class="node">
<title>AppComponent </title>
<polygon fill="#80b1d3" stroke="black" points="832.44,-252 723.56,-252 723.56,-216 832.44,-216 832.44,-252"/>
<text text-anchor="middle" x="778" y="-229.8" font-family="Times,serif" font-size="14.00">AppComponent </text>
</g>
<!-- AppModule&#45;&gt;AppComponent  -->
<g id="edge9" class="edge">
<title>AppModule&#45;&gt;AppComponent </title>
<path fill="none" stroke="black" stroke-dasharray="1,5" d="M778,-187.11C778,-187.11 778,-205.99 778,-205.99"/>
<polygon fill="black" stroke="black" points="774.5,-205.99 778,-215.99 781.5,-205.99 774.5,-205.99"/>
</g>
<!-- ProductService -->
<g id="node11" class="node">
<title>ProductService</title>
<ellipse fill="#fdb462" stroke="black" cx="94" cy="-104" rx="70.06" ry="18"/>
<text text-anchor="middle" x="94" y="-99.8" font-family="Times,serif" font-size="14.00">ProductService</text>
</g>
<!-- ProductService&#45;&gt;AppModule -->
<g id="edge10" class="edge">
<title>ProductService&#45;&gt;AppModule</title>
<path fill="none" stroke="black" d="M94,-122.01C94,-144.49 94,-180 94,-180 94,-180 726.24,-180 726.24,-180"/>
<polygon fill="black" stroke="black" points="726.24,-183.5 736.24,-180 726.24,-176.5 726.24,-183.5"/>
</g>
</g>
</svg>
